<svg version="1.1" id="Layer_1" xmlns="https://www.w3.org/2000/svg" xmlns:xlink="https://www.w3.org/1999/xlink" x="0px" y="0px"
	 width="100%" viewBox="0 0 500 500" enable-background="new 0 0 500 500" xml:space="preserve">
<path fill="#FFFFFF" opacity="1.000000" stroke="none" 
	d="
M322.000000,501.000000 
	C214.666687,501.000000 107.833382,501.000000 1.000057,501.000000 
	C1.000038,334.333405 1.000038,167.666794 1.000019,1.000147 
	C167.666565,1.000098 334.333130,1.000098 500.999756,1.000049 
	C500.999847,167.666519 500.999847,334.333038 500.999939,500.999786 
	C441.500000,501.000000 382.000000,501.000000 322.000000,501.000000 
M64.516556,274.499695 
	C64.516556,289.890717 64.516556,305.281738 64.516556,320.524475 
	C189.299072,320.524475 313.190002,320.524475 437.162170,320.524475 
	C437.162170,248.995529 437.162170,177.762360 437.162170,106.434853 
	C312.897736,106.434853 188.987167,106.434853 64.516602,106.434853 
	C64.516602,162.271881 64.516602,217.885773 64.516556,274.499695 
M225.500031,339.885498 
	C171.934128,339.885498 118.368217,339.885498 64.797867,339.885498 
	C64.797867,358.877777 64.797867,377.144104 64.797867,395.598022 
	C189.027252,395.598022 312.953888,395.598022 437.201691,395.598022 
	C437.201691,377.002899 437.201691,358.603088 437.201691,339.885498 
	C366.792603,339.885498 296.646332,339.885498 225.500031,339.885498 
z"/>
<path fill="#020202" opacity="1.000000" stroke="none" 
	d="
M64.516579,273.999695 
	C64.516602,217.885773 64.516602,162.271881 64.516602,106.434853 
	C188.987167,106.434853 312.897736,106.434853 437.162170,106.434853 
	C437.162170,177.762360 437.162170,248.995529 437.162170,320.524475 
	C313.190002,320.524475 189.299072,320.524475 64.516556,320.524475 
	C64.516556,305.281738 64.516556,289.890717 64.516579,273.999695 
M198.351181,220.989105 
	C197.199951,220.819412 196.054092,220.574112 194.896652,220.491592 
	C182.064270,219.576645 171.339218,228.219879 170.045807,240.492905 
	C168.555801,254.631027 176.234924,265.261047 189.353622,267.220306 
	C202.143188,269.130402 213.245148,261.992615 215.896927,250.154785 
	C218.944183,236.551498 212.511826,225.388840 198.351181,220.989105 
M248.237289,222.978348 
	C240.110382,222.035355 231.983475,221.092377 223.521118,220.110474 
	C223.521118,236.535110 223.521118,251.597687 223.521118,266.837952 
	C226.370544,266.837952 228.963943,266.837952 232.095612,266.837952 
	C232.095612,260.845642 232.095612,254.976761 232.095612,249.333267 
	C236.262436,248.332779 238.601227,249.790176 240.341522,253.022247 
	C241.912094,255.939072 243.951813,258.603638 245.789642,261.376160 
	C250.028061,267.770172 250.801773,268.066315 258.940765,266.267853 
	C254.582626,259.902069 250.282654,253.621231 245.987396,247.347290 
	C257.259796,240.843719 258.624115,230.069473 248.237289,222.978348 
M187.340652,208.017273 
	C188.188782,206.823761 189.693176,205.670135 189.768600,204.429642 
	C190.056778,199.689453 189.885040,194.921310 189.885040,190.163589 
	C190.394012,189.778427 190.902969,189.393265 191.411942,189.008087 
	C193.572174,190.583633 196.111160,191.835449 197.801178,193.812866 
	C200.158066,196.570572 201.864822,199.880859 203.877502,202.936447 
	C207.640396,208.649216 209.438461,209.248169 216.613281,207.147827 
	C212.277527,200.827713 207.969193,194.547607 203.679047,188.293991 
	C211.016418,184.415207 214.037918,179.301697 212.758453,172.641373 
	C211.632355,166.779282 207.289749,162.926285 199.765442,162.285995 
	C193.699219,161.769791 187.554047,162.181458 181.286346,162.181458 
	C181.286346,177.528641 181.286346,192.585495 181.286346,208.028503 
	C183.147980,208.028503 184.777054,208.028503 187.340652,208.017273 
M172.193420,185.449982 
	C172.193420,177.694260 172.193420,169.938553 172.193420,162.323761 
	C168.982727,162.323761 166.418137,162.323761 163.653351,162.323761 
	C163.653351,166.137894 163.688019,169.620590 163.645706,173.102325 
	C163.570892,179.259064 163.793472,185.445648 163.252655,191.563263 
	C162.685059,197.983994 158.613861,201.238876 152.613007,200.988541 
	C146.982712,200.753677 143.270782,197.080597 142.945221,190.996368 
	C142.696259,186.343811 142.829712,181.670166 142.815567,177.005829 
	C142.800583,172.066650 142.812210,167.127396 142.812210,162.266205 
	C139.535095,162.266205 136.938797,162.266205 134.123688,162.266205 
	C134.123688,172.337296 133.814133,182.148071 134.218002,191.929382 
	C134.564209,200.314117 140.593918,206.582993 148.697586,208.088791 
	C163.241852,210.791367 172.194519,202.538101 172.193420,185.449982 
M265.208862,208.007324 
	C266.697998,206.992935 269.311554,206.147751 269.493774,204.936707 
	C270.674194,197.093048 275.621460,195.853088 282.232452,196.804459 
	C283.700104,197.015656 285.252625,197.022461 286.716522,196.798920 
	C290.460419,196.227219 292.195709,197.675903 293.371490,201.381027 
	C295.744110,208.857666 296.021332,208.769699 304.411530,207.459000 
	C298.460999,192.306549 292.542206,177.234970 286.670410,162.283112 
	C277.879456,161.565933 277.890533,161.570282 274.790680,169.469482 
	C272.063629,176.418686 269.293793,183.351120 266.569427,190.301392 
	C264.311462,196.061890 262.092255,201.837601 259.698730,208.011948 
	C261.713043,208.011948 263.034821,208.011948 265.208862,208.007324 
M284.895691,229.537827 
	C284.895691,241.946869 284.895691,254.355911 284.895691,266.740540 
	C294.941162,266.740540 304.353729,266.740540 313.648041,266.740540 
	C313.648041,264.405731 313.648041,262.348450 313.648041,259.971680 
	C306.894440,259.971680 300.455353,259.971680 293.943054,259.971680 
	C293.943054,255.593384 293.943054,251.552307 293.943054,246.994171 
	C299.324554,246.994171 304.397400,246.994171 309.309998,246.994171 
	C309.309998,244.580460 309.309998,242.700958 309.309998,240.450500 
	C303.995239,240.450500 299.064087,240.450500 293.879486,240.450500 
	C293.879486,236.170013 293.879486,232.269760 293.879486,227.846802 
	C300.600983,227.846802 307.175507,227.846802 313.839203,227.846802 
	C313.839203,225.381958 313.839203,223.438141 313.839203,221.299530 
	C304.165741,221.299530 294.632629,221.299530 284.895630,221.299530 
	C284.895630,223.921982 284.895630,226.237091 284.895691,229.537827 
M318.791443,259.447174 
	C319.137177,260.767029 319.172455,263.021973 319.878571,263.256409 
	C324.799408,264.890259 329.865417,267.225983 334.873169,267.198364 
	C342.862885,267.154388 347.892975,261.631165 348.765228,254.152069 
	C349.513184,247.738724 346.188416,243.399628 338.248108,240.449646 
	C335.764648,239.527008 332.990051,239.041489 330.876099,237.588562 
	C329.379608,236.560028 327.727875,234.024536 328.033264,232.553711 
	C328.400055,230.787231 330.542206,228.615662 332.332855,228.116638 
	C334.515106,227.508484 337.309021,227.988251 339.525879,228.825211 
	C345.444611,231.059860 345.378143,231.235931 347.535614,224.987167 
	C342.308655,220.661606 336.276276,219.627975 329.798584,221.048218 
	C323.927338,222.335510 320.016754,227.084763 319.518951,233.043289 
	C319.021851,238.993805 321.819733,243.321320 327.877167,245.694656 
	C330.959351,246.902298 334.442139,247.403915 337.142761,249.152863 
	C338.819092,250.238510 340.421753,253.231033 340.130859,255.061447 
	C339.834595,256.925232 337.196350,259.765564 335.549164,259.789368 
	C331.950623,259.841278 328.100952,258.882965 324.789642,257.378326 
	C322.031250,256.124908 320.517426,256.246552 318.791443,259.447174 
M105.597084,186.007095 
	C108.095581,186.900604 110.584358,187.822540 113.094864,188.680939 
	C116.834999,189.959778 120.660316,191.250656 119.649117,196.409805 
	C118.860764,200.431976 114.955406,202.178940 109.552391,201.032867 
	C108.117661,200.728531 106.702522,200.120071 105.404984,199.417465 
	C99.906174,196.439896 99.802444,196.456314 97.201881,202.844284 
	C102.940224,207.949234 109.622711,209.632858 117.077080,207.939636 
	C123.125717,206.565735 127.486427,201.241898 127.941231,195.149963 
	C128.424713,188.673630 126.003761,184.954819 119.332603,182.187805 
	C116.577042,181.044891 113.406616,180.584167 111.035347,178.935272 
	C109.198402,177.657913 106.984421,174.713974 107.359947,173.061157 
	C107.766533,171.271667 110.809021,169.592422 113.029488,168.864822 
	C114.679680,168.324081 116.976700,169.065887 118.769714,169.779160 
	C124.682716,172.131332 124.645042,172.226044 127.222420,164.761612 
	C122.392624,163.624222 117.729462,161.795166 112.994888,161.586502 
	C106.296173,161.291275 100.804764,165.652634 99.216614,171.118195 
	C97.486336,177.072891 99.331512,181.802322 105.597084,186.007095 
M103.013115,265.721252 
	C107.409439,266.187134 111.877625,267.376953 116.185257,266.949371 
	C122.664970,266.306244 127.255913,260.845459 127.921562,254.538422 
	C128.624893,247.874298 125.888268,243.798340 118.753929,240.977005 
	C116.288780,240.002136 113.787117,239.119385 111.300034,238.200241 
	C108.359154,237.113403 105.765900,235.047119 107.254662,231.984940 
	C108.228294,229.982300 111.254005,228.610336 113.646477,227.800034 
	C115.117798,227.301712 117.235138,228.136658 118.876961,228.819107 
	C124.787361,231.275848 124.757599,231.347458 126.753754,224.929626 
	C121.978973,221.002716 116.463776,219.818924 110.445679,220.821060 
	C103.943314,221.903809 99.537964,226.312088 98.891998,232.162231 
	C98.124870,239.109665 100.720345,243.182159 107.724533,245.899368 
	C109.423996,246.558655 111.187927,247.051498 112.921356,247.623505 
	C118.691116,249.527496 120.697495,251.960007 119.597473,255.715073 
	C118.463821,259.584961 114.607491,261.226379 109.245300,259.993073 
	C107.972794,259.700378 106.732277,259.131165 105.571983,258.511383 
	C99.962807,255.515244 99.974289,255.493744 97.040184,261.911133 
	C98.776779,263.030640 100.564415,264.183044 103.013115,265.721252 
M221.601746,162.000565 
	C220.420212,162.112198 219.238693,162.223816 217.688583,162.370270 
	C219.170898,164.860825 220.320694,166.862656 221.536331,168.823685 
	C228.846207,180.615997 237.129089,192.079880 234.324539,207.242188 
	C234.304672,207.349640 234.516113,207.499893 234.661148,207.682587 
	C237.338608,207.682587 240.045410,207.682587 242.950073,207.682587 
	C242.950073,204.379700 243.242584,201.370499 242.888687,198.439346 
	C242.169769,192.484833 244.105606,187.523438 247.305786,182.617752 
	C251.533905,176.136230 255.252731,169.322449 259.277527,162.504044 
	C250.550720,161.289841 250.562103,161.296051 246.839798,168.130798 
	C244.123383,173.118500 241.371979,178.087158 238.518784,183.277893 
	C235.203232,177.175034 231.958710,171.570969 229.094727,165.778748 
	C227.623001,162.802261 225.682388,161.470566 221.601746,162.000565 
M153.185226,231.736542 
	C152.820175,229.149338 153.482193,227.737747 156.557449,227.974808 
	C159.972549,228.238052 163.423569,228.035049 166.749802,228.035049 
	C166.749802,225.373932 166.749802,223.309097 166.749802,221.336670 
	C154.592743,221.336670 142.729446,221.336670 130.958771,221.336670 
	C130.958771,223.633789 130.958771,225.589355 130.958771,228.039062 
	C135.501236,228.039062 139.900879,228.039062 144.721039,228.039062 
	C144.721039,241.231903 144.721039,253.936035 144.721039,266.744202 
	C147.739716,266.744202 150.305374,266.744202 153.184601,266.744202 
	C153.184601,255.226349 153.184601,243.958908 153.185226,231.736542 
M268.514923,267.018494 
	C270.448975,267.018494 272.383026,267.018494 274.398560,267.018494 
	C274.398560,251.403534 274.398560,236.346664 274.398560,221.182663 
	C271.525024,221.182663 268.934784,221.182663 265.933960,221.182663 
	C265.933960,235.982559 265.914001,250.577240 266.003052,265.171265 
	C266.006805,265.789124 267.022308,266.400787 268.514923,267.018494 
z"/>
<path fill="#040404" opacity="1.000000" stroke="none" 
	d="
M226.000046,339.885498 
	C296.646332,339.885498 366.792603,339.885498 437.201691,339.885498 
	C437.201691,358.603088 437.201691,377.002899 437.201691,395.598022 
	C312.953888,395.598022 189.027252,395.598022 64.797867,395.598022 
	C64.797867,377.144104 64.797867,358.877777 64.797867,339.885498 
	C118.368217,339.885498 171.934128,339.885498 226.000046,339.885498 
M146.581726,373.941559 
	C148.235794,373.977905 149.892380,374.091431 151.543503,374.037476 
	C159.340988,373.782806 153.766296,367.512146 155.579788,364.485992 
	C155.849152,364.036499 153.661865,361.395538 152.196640,360.815552 
	C150.523361,360.153137 148.386337,360.662170 146.016571,360.662170 
	C146.016571,365.010956 146.016571,369.105286 146.581726,373.941559 
M326.579163,371.077576 
	C326.962860,372.133270 327.346558,373.188934 327.730255,374.244629 
	C328.124268,374.148804 328.518311,374.052979 328.912323,373.957153 
	C329.126495,372.329895 329.340668,370.702606 329.601685,368.719452 
	C332.018768,370.857910 333.993866,372.605316 335.968964,374.352722 
	C336.237671,374.019379 336.506378,373.686005 336.775085,373.352661 
	C335.715332,371.710510 334.655579,370.068390 333.595825,368.426239 
	C334.993011,366.409302 336.012878,363.033203 335.255615,362.571442 
	C332.903717,361.137268 329.877197,360.809448 326.596558,359.911133 
	C326.596558,364.268921 326.596558,367.229370 326.579163,371.077576 
M276.081329,361.163452 
	C276.081329,365.397430 276.081329,369.631439 276.081329,373.865417 
	C276.510742,373.996216 276.940125,374.126984 277.369537,374.257751 
	C278.044006,372.561920 278.718445,370.866058 279.406494,369.136047 
	C281.362976,370.979675 283.238495,372.747009 285.114014,374.514343 
	C285.438629,374.193665 285.763245,373.873016 286.087860,373.552338 
	C284.846832,371.045624 281.710632,368.919891 284.802643,365.543457 
	C285.185394,365.125519 283.470795,361.889496 282.067749,360.994659 
	C280.754456,360.157074 278.563995,360.694824 276.081329,361.163452 
M210.929810,366.689240 
	C210.694077,370.520691 212.210175,373.253937 216.121292,373.971985 
	C220.010147,374.685913 223.155380,373.437256 224.193085,369.261230 
	C225.145538,365.428192 224.031067,362.314575 220.052078,360.836517 
	C215.907974,359.297119 213.089706,360.910583 210.929810,366.689240 
M177.717377,374.106995 
	C181.041168,374.430176 184.140442,373.386780 184.807770,370.101501 
	C185.301132,367.672607 184.810959,364.183716 183.290863,362.466980 
	C181.977539,360.983765 178.210007,360.363434 176.237488,361.147675 
	C174.318756,361.910553 172.553940,364.777740 172.062195,367.015503 
	C171.298492,370.490814 173.399307,372.983490 177.717377,374.106995 
M118.981445,368.764618 
	C119.380753,370.582458 119.780052,372.400330 120.179359,374.218170 
	C120.627899,374.094971 121.076439,373.971771 121.524979,373.848541 
	C121.524979,369.431030 121.524979,365.013489 121.524979,360.595947 
	C121.071350,360.510254 120.617714,360.424561 120.164085,360.338867 
	C119.674164,362.120392 119.184250,363.901917 118.661285,365.803589 
	C116.976479,365.803589 115.106102,365.803589 113.151352,365.803589 
	C113.151352,364.611481 113.229843,363.773956 113.129570,362.958405 
	C113.026443,362.119659 112.748901,361.302338 112.462296,360.124878 
	C109.520737,363.807556 109.826035,372.241150 112.795830,374.070587 
	C113.050613,372.086853 113.291298,370.212860 113.543358,368.250336 
	C115.315117,368.250336 116.794128,368.250336 118.981445,368.764618 
M313.844055,365.694000 
	C313.527588,364.934753 313.310516,364.111359 312.871460,363.431244 
	C312.205597,362.399597 311.385498,361.467560 310.630920,360.493195 
	C309.705658,361.468048 308.442108,362.289978 307.919250,363.446716 
	C306.415863,366.772858 305.211823,370.234344 303.816101,373.833496 
	C304.415527,373.825989 316.493713,373.674561 316.777924,373.670990 
	C315.848541,371.195892 314.951416,368.806763 313.844055,365.694000 
M352.195404,372.152557 
	C350.936798,368.903351 349.748077,365.624023 348.369110,362.426727 
	C348.035278,361.652679 347.090393,360.679230 346.395630,360.654205 
	C345.702942,360.629242 344.629150,361.536194 344.314880,362.283630 
	C342.747498,366.011505 341.375244,369.821381 339.740295,374.111633 
	C341.015015,373.921783 341.974030,374.046936 342.185822,373.706787 
	C344.869568,369.396820 347.504364,369.449036 350.370850,373.533203 
	C350.500336,373.717682 351.781158,373.094055 352.195404,372.152557 
M262.631653,362.318298 
	C262.065552,361.629669 261.499451,360.941010 260.933350,360.252380 
	C260.560516,360.445892 260.187653,360.639404 259.814789,360.832947 
	C260.779572,365.161407 257.402435,370.593994 263.057983,373.591064 
	C264.615723,374.416565 268.143463,373.875702 269.324707,372.612671 
	C272.653473,369.053314 271.005524,364.653198 269.708191,360.500488 
	C268.582703,363.163818 268.752167,365.951752 268.204010,368.590546 
	C267.952942,369.799133 266.290527,370.714539 265.268219,371.762909 
	C264.409424,370.720306 263.099762,369.792145 262.799103,368.607849 
	C262.364410,366.895691 262.660736,364.997955 262.631653,362.318298 
M191.960968,368.261566 
	C191.271729,361.046722 197.005753,363.457581 201.581573,362.972748 
	C197.691147,359.586670 194.441605,359.557739 191.460709,361.926636 
	C188.487305,364.289612 188.136078,367.563477 189.963547,370.907257 
	C191.931152,374.507416 195.493317,375.011383 198.584839,373.683990 
	C200.177917,372.999969 200.722610,369.874298 202.299667,366.742615 
	C199.151810,367.148712 197.797943,367.323395 196.192993,367.530426 
	C197.136673,369.066620 197.809235,370.161469 198.481781,371.256317 
	C198.108582,371.730804 197.735382,372.205292 197.362183,372.679749 
	C195.601532,371.481140 193.840881,370.282532 191.960968,368.261566 
M131.370316,362.823212 
	C132.842896,362.665985 134.315491,362.508759 135.788071,362.351562 
	C135.760147,361.887146 135.732208,361.422760 135.704285,360.958344 
	C132.925049,360.958344 130.145828,360.958344 127.176773,360.958344 
	C127.176773,365.228027 127.176773,369.457855 127.176773,374.179321 
	C130.227570,374.000397 133.002380,373.837677 135.777176,373.674927 
	C135.750320,373.213745 135.723450,372.752563 135.696594,372.291382 
	C133.792725,372.078888 131.888870,371.866394 129.985001,371.653931 
	C129.766037,371.223785 129.547073,370.793671 129.328094,370.363556 
	C130.992050,369.223572 132.656006,368.083588 134.210693,367.018494 
	C133.499039,364.948639 127.722916,367.892792 131.370316,362.823212 
M235.607925,360.352692 
	C233.495483,360.352692 231.383041,360.352692 229.048492,360.352692 
	C229.048492,365.212677 229.048492,369.574127 229.048492,373.935608 
	C229.494110,374.073639 229.939743,374.211670 230.385361,374.349701 
	C230.965179,372.708221 231.544983,371.066772 232.181107,369.265930 
	C233.467117,368.902557 235.013947,368.465485 236.807755,367.958618 
	C236.189285,367.142090 236.048157,366.785858 235.789093,366.642120 
	C234.412338,365.878143 233.006027,365.167419 231.609940,364.438263 
	C232.946655,363.923279 234.392868,363.577911 235.571014,362.817352 
	C236.109436,362.469788 236.119568,361.303894 235.607925,360.352692 
M252.115585,374.067627 
	C261.915222,368.477753 251.154495,367.031281 249.437775,363.325745 
	C251.680893,363.062378 253.389740,362.861755 255.919952,362.564667 
	C252.492935,359.625031 249.728210,359.484589 247.818024,362.454590 
	C247.150131,363.493042 248.098572,366.015747 248.965073,367.469543 
	C249.807846,368.883484 251.490936,369.796570 252.805023,370.929565 
	C251.028137,371.007263 249.249374,371.060852 247.477066,371.197876 
	C247.289322,371.212341 247.139374,371.715576 246.542572,372.700775 
	C248.226517,373.214355 249.770142,373.685150 252.115585,374.067627 
M292.482117,361.384674 
	C291.668640,361.072845 290.855164,360.761017 289.721832,360.326599 
	C291.603912,365.093994 293.290680,369.366638 295.262909,374.362305 
	C297.119263,369.806396 298.945526,365.324341 300.771759,360.842316 
	C300.439209,360.580872 300.106659,360.319458 299.774109,360.058014 
	C298.268402,361.970001 296.762726,363.881958 295.117035,365.971710 
	C294.295013,364.500366 293.578888,363.218567 292.482117,361.384674 
M99.912498,372.237762 
	C100.448387,372.825897 100.984276,373.414062 101.520164,374.002197 
	C101.945236,373.232544 102.694183,372.480347 102.736885,371.690033 
	C102.887306,368.906128 102.795364,366.109100 102.795364,363.548859 
	C104.421913,362.942932 105.634491,362.491241 106.847076,362.039551 
	C106.764725,361.708710 106.682381,361.377869 106.600037,361.047028 
	C103.056244,361.047028 99.512451,361.047028 95.968658,361.047028 
	C95.931305,361.407715 95.893951,361.768402 95.856606,362.129089 
	C97.212967,362.603180 98.569336,363.077240 99.913437,363.547028 
	C99.913437,366.343414 99.913437,368.826477 99.912498,372.237762 
M165.402649,371.876190 
	C164.655334,370.623535 163.444687,369.435028 163.260529,368.104431 
	C162.914261,365.602875 163.160706,363.019257 163.160706,360.469757 
	C162.469879,360.490814 161.779053,360.511841 161.088226,360.532898 
	C161.088226,364.902374 161.088226,369.271851 161.088226,373.587006 
	C163.435410,373.587006 166.020462,373.587006 168.605530,373.587006 
	C168.639313,373.287628 168.673111,372.988220 168.706894,372.688843 
	C167.892532,372.419342 167.078171,372.149841 165.402649,371.876190 
M359.693573,369.779968 
	C358.505341,371.052094 357.317108,372.324249 356.128876,373.596405 
	C357.971375,373.792023 360.831085,373.476227 361.044647,372.550201 
	C361.925720,368.729645 362.004333,364.723999 362.377869,360.786377 
	C361.505310,360.747559 360.632721,360.708710 359.760162,360.669891 
	C359.760162,363.414215 359.760162,366.158569 359.693573,369.779968 
z"/>
<path fill="#F6F6F6" opacity="1.000000" stroke="none" 
	d="
M198.753143,221.045105 
	C212.511826,225.388840 218.944183,236.551498 215.896927,250.154785 
	C213.245148,261.992615 202.143188,269.130402 189.353622,267.220306 
	C176.234924,265.261047 168.555801,254.631027 170.045807,240.492905 
	C171.339218,228.219879 182.064270,219.576645 194.896652,220.491592 
	C196.054092,220.574112 197.199951,220.819412 198.753143,221.045105 
M185.653061,229.862061 
	C177.382904,233.947876 177.338623,248.397354 181.465179,254.331619 
	C186.376038,261.393799 197.958694,262.239410 203.746262,255.810974 
	C208.481537,250.551315 208.951431,239.497864 204.700287,233.368164 
	C200.966568,227.984528 194.103775,226.516785 185.653061,229.862061 
z"/>
<path fill="#F5F5F5" opacity="1.000000" stroke="none" 
	d="
M248.593170,223.132996 
	C258.624115,230.069473 257.259796,240.843719 245.987396,247.347290 
	C250.282654,253.621231 254.582626,259.902069 258.940765,266.267853 
	C250.801773,268.066315 250.028061,267.770172 245.789642,261.376160 
	C243.951813,258.603638 241.912094,255.939072 240.341522,253.022247 
	C238.601227,249.790176 236.262436,248.332779 232.095612,249.333267 
	C232.095612,254.976761 232.095612,260.845642 232.095612,266.837952 
	C228.963943,266.837952 226.370544,266.837952 223.521118,266.837952 
	C223.521118,251.597687 223.521118,236.535110 223.521118,220.110474 
	C231.983475,221.092377 240.110382,222.035355 248.593170,223.132996 
M240.812653,227.995682 
	C238.029633,227.995682 235.246597,227.995682 232.279175,227.995682 
	C232.279175,232.929565 232.279175,237.810562 232.279175,242.670502 
	C241.444870,243.265137 244.998901,241.854248 246.330139,237.162994 
	C247.593109,232.712311 245.801224,229.803131 240.812653,227.995682 
z"/>
<path fill="#F5F5F5" opacity="1.000000" stroke="none" 
	d="
M186.873383,208.022888 
	C184.777054,208.028503 183.147980,208.028503 181.286346,208.028503 
	C181.286346,192.585495 181.286346,177.528641 181.286346,162.181458 
	C187.554047,162.181458 193.699219,161.769791 199.765442,162.285995 
	C207.289749,162.926285 211.632355,166.779282 212.758453,172.641373 
	C214.037918,179.301697 211.016418,184.415207 203.679047,188.293991 
	C207.969193,194.547607 212.277527,200.827713 216.613281,207.147827 
	C209.438461,209.248169 207.640396,208.649216 203.877502,202.936447 
	C201.864822,199.880859 200.158066,196.570572 197.801178,193.812866 
	C196.111160,191.835449 193.572174,190.583633 191.411942,189.008087 
	C190.902969,189.393265 190.394012,189.778427 189.885040,190.163589 
	C189.885040,194.921310 190.056778,199.689453 189.768600,204.429642 
	C189.693176,205.670135 188.188782,206.823761 186.873383,208.022888 
M191.578537,183.888916 
	C193.880508,183.722443 196.238449,183.815399 198.472321,183.333359 
	C202.620316,182.438293 204.522110,179.647507 204.312042,175.389465 
	C204.098663,171.064728 201.425583,169.281693 197.538055,168.960114 
	C195.124832,168.760483 192.681671,168.923080 189.512573,168.923080 
	C189.916031,174.127533 190.290237,178.954391 191.578537,183.888916 
z"/>
<path fill="#F7F7F7" opacity="1.000000" stroke="none" 
	d="
M172.193726,185.938980 
	C172.194519,202.538101 163.241852,210.791367 148.697586,208.088791 
	C140.593918,206.582993 134.564209,200.314117 134.218002,191.929382 
	C133.814133,182.148071 134.123688,172.337296 134.123688,162.266205 
	C136.938797,162.266205 139.535095,162.266205 142.812210,162.266205 
	C142.812210,167.127396 142.800583,172.066650 142.815567,177.005829 
	C142.829712,181.670166 142.696259,186.343811 142.945221,190.996368 
	C143.270782,197.080597 146.982712,200.753677 152.613007,200.988541 
	C158.613861,201.238876 162.685059,197.983994 163.252655,191.563263 
	C163.793472,185.445648 163.570892,179.259064 163.645706,173.102325 
	C163.688019,169.620590 163.653351,166.137894 163.653351,162.323761 
	C166.418137,162.323761 168.982727,162.323761 172.193420,162.323761 
	C172.193420,169.938553 172.193420,177.694260 172.193726,185.938980 
z"/>
<path fill="#F5F5F5" opacity="1.000000" stroke="none" 
	d="
M264.782745,208.009644 
	C263.034821,208.011948 261.713043,208.011948 259.698730,208.011948 
	C262.092255,201.837601 264.311462,196.061890 266.569427,190.301392 
	C269.293793,183.351120 272.063629,176.418686 274.790680,169.469482 
	C277.890533,161.570282 277.879456,161.565933 286.670410,162.283112 
	C292.542206,177.234970 298.460999,192.306549 304.411530,207.459000 
	C296.021332,208.769699 295.744110,208.857666 293.371490,201.381027 
	C292.195709,197.675903 290.460419,196.227219 286.716522,196.798920 
	C285.252625,197.022461 283.700104,197.015656 282.232452,196.804459 
	C275.621460,195.853088 270.674194,197.093048 269.493774,204.936707 
	C269.311554,206.147751 266.697998,206.992935 264.782745,208.009644 
M278.940918,179.401688 
	C277.652008,183.036804 276.363098,186.671936 275.053955,190.364197 
	C280.080322,190.364197 284.458893,190.364197 289.294708,190.364197 
	C286.930634,183.872131 284.732147,177.834763 282.181854,170.831299 
	C280.912628,174.105881 280.032867,176.375656 278.940918,179.401688 
z"/>
<path fill="#F7F7F7" opacity="1.000000" stroke="none" 
	d="
M284.895660,229.045013 
	C284.895630,226.237091 284.895630,223.921982 284.895630,221.299530 
	C294.632629,221.299530 304.165741,221.299530 313.839203,221.299530 
	C313.839203,223.438141 313.839203,225.381958 313.839203,227.846802 
	C307.175507,227.846802 300.600983,227.846802 293.879486,227.846802 
	C293.879486,232.269760 293.879486,236.170013 293.879486,240.450500 
	C299.064087,240.450500 303.995239,240.450500 309.309998,240.450500 
	C309.309998,242.700958 309.309998,244.580460 309.309998,246.994171 
	C304.397400,246.994171 299.324554,246.994171 293.943054,246.994171 
	C293.943054,251.552307 293.943054,255.593384 293.943054,259.971680 
	C300.455353,259.971680 306.894440,259.971680 313.648041,259.971680 
	C313.648041,262.348450 313.648041,264.405731 313.648041,266.740540 
	C304.353729,266.740540 294.941162,266.740540 284.895691,266.740540 
	C284.895691,254.355911 284.895691,241.946869 284.895660,229.045013 
z"/>
<path fill="#F2F2F2" opacity="1.000000" stroke="none" 
	d="
M318.967590,259.124268 
	C320.517426,256.246552 322.031250,256.124908 324.789642,257.378326 
	C328.100952,258.882965 331.950623,259.841278 335.549164,259.789368 
	C337.196350,259.765564 339.834595,256.925232 340.130859,255.061447 
	C340.421753,253.231033 338.819092,250.238510 337.142761,249.152863 
	C334.442139,247.403915 330.959351,246.902298 327.877167,245.694656 
	C321.819733,243.321320 319.021851,238.993805 319.518951,233.043289 
	C320.016754,227.084763 323.927338,222.335510 329.798584,221.048218 
	C336.276276,219.627975 342.308655,220.661606 347.535614,224.987167 
	C345.378143,231.235931 345.444611,231.059860 339.525879,228.825211 
	C337.309021,227.988251 334.515106,227.508484 332.332855,228.116638 
	C330.542206,228.615662 328.400055,230.787231 328.033264,232.553711 
	C327.727875,234.024536 329.379608,236.560028 330.876099,237.588562 
	C332.990051,239.041489 335.764648,239.527008 338.248108,240.449646 
	C346.188416,243.399628 349.513184,247.738724 348.765228,254.152069 
	C347.892975,261.631165 342.862885,267.154388 334.873169,267.198364 
	C329.865417,267.225983 324.799408,264.890259 319.878571,263.256409 
	C319.172455,263.021973 319.137177,260.767029 318.967590,259.124268 
z"/>
<path fill="#F3F3F3" opacity="1.000000" stroke="none" 
	d="
M105.252777,185.857132 
	C99.331512,181.802322 97.486336,177.072891 99.216614,171.118195 
	C100.804764,165.652634 106.296173,161.291275 112.994888,161.586502 
	C117.729462,161.795166 122.392624,163.624222 127.222420,164.761612 
	C124.645042,172.226044 124.682716,172.131332 118.769714,169.779160 
	C116.976700,169.065887 114.679680,168.324081 113.029488,168.864822 
	C110.809021,169.592422 107.766533,171.271667 107.359947,173.061157 
	C106.984421,174.713974 109.198402,177.657913 111.035347,178.935272 
	C113.406616,180.584167 116.577042,181.044891 119.332603,182.187805 
	C126.003761,184.954819 128.424713,188.673630 127.941231,195.149963 
	C127.486427,201.241898 123.125717,206.565735 117.077080,207.939636 
	C109.622711,209.632858 102.940224,207.949234 97.201881,202.844284 
	C99.802444,196.456314 99.906174,196.439896 105.404984,199.417465 
	C106.702522,200.120071 108.117661,200.728531 109.552391,201.032867 
	C114.955406,202.178940 118.860764,200.431976 119.649117,196.409805 
	C120.660316,191.250656 116.834999,189.959778 113.094864,188.680939 
	C110.584358,187.822540 108.095581,186.900604 105.252777,185.857132 
z"/>
<path fill="#F3F3F3" opacity="1.000000" stroke="none" 
	d="
M102.682587,265.528381 
	C100.564415,264.183044 98.776779,263.030640 97.040184,261.911133 
	C99.974289,255.493744 99.962807,255.515244 105.571983,258.511383 
	C106.732277,259.131165 107.972794,259.700378 109.245300,259.993073 
	C114.607491,261.226379 118.463821,259.584961 119.597473,255.715073 
	C120.697495,251.960007 118.691116,249.527496 112.921356,247.623505 
	C111.187927,247.051498 109.423996,246.558655 107.724533,245.899368 
	C100.720345,243.182159 98.124870,239.109665 98.891998,232.162231 
	C99.537964,226.312088 103.943314,221.903809 110.445679,220.821060 
	C116.463776,219.818924 121.978973,221.002716 126.753754,224.929626 
	C124.757599,231.347458 124.787361,231.275848 118.876961,228.819107 
	C117.235138,228.136658 115.117798,227.301712 113.646477,227.800034 
	C111.254005,228.610336 108.228294,229.982300 107.254662,231.984940 
	C105.765900,235.047119 108.359154,237.113403 111.300034,238.200241 
	C113.787117,239.119385 116.288780,240.002136 118.753929,240.977005 
	C125.888268,243.798340 128.624893,247.874298 127.921562,254.538422 
	C127.255913,260.845459 122.664970,266.306244 116.185257,266.949371 
	C111.877625,267.376953 107.409439,266.187134 102.682587,265.528381 
z"/>
<path fill="#F5F5F5" opacity="1.000000" stroke="none" 
	d="
M222.024170,161.998413 
	C225.682388,161.470566 227.623001,162.802261 229.094727,165.778748 
	C231.958710,171.570969 235.203232,177.175034 238.518784,183.277893 
	C241.371979,178.087158 244.123383,173.118500 246.839798,168.130798 
	C250.562103,161.296051 250.550720,161.289841 259.277527,162.504044 
	C255.252731,169.322449 251.533905,176.136230 247.305786,182.617752 
	C244.105606,187.523438 242.169769,192.484833 242.888687,198.439346 
	C243.242584,201.370499 242.950073,204.379700 242.950073,207.682587 
	C240.045410,207.682587 237.338608,207.682587 234.661148,207.682587 
	C234.516113,207.499893 234.304672,207.349640 234.324539,207.242188 
	C237.129089,192.079880 228.846207,180.615997 221.536331,168.823685 
	C220.320694,166.862656 219.170898,164.860825 217.688583,162.370270 
	C219.238693,162.223816 220.420212,162.112198 222.024170,161.998413 
z"/>
<path fill="#FEFEFE" opacity="1.000000" stroke="none" 
	d="
M153.184906,232.214005 
	C153.184601,243.958908 153.184601,255.226349 153.184601,266.744202 
	C150.305374,266.744202 147.739716,266.744202 144.721039,266.744202 
	C144.721039,253.936035 144.721039,241.231903 144.721039,228.039062 
	C139.900879,228.039062 135.501236,228.039062 130.958771,228.039062 
	C130.958771,225.589355 130.958771,223.633789 130.958771,221.336670 
	C142.729446,221.336670 154.592743,221.336670 166.749802,221.336670 
	C166.749802,223.309097 166.749802,225.373932 166.749802,228.035049 
	C163.423569,228.035049 159.972549,228.238052 156.557449,227.974808 
	C153.482193,227.737747 152.820175,229.149338 153.184906,232.214005 
z"/>
<path fill="#F3F3F3" opacity="1.000000" stroke="none" 
	d="
M268.040710,267.016907 
	C267.022308,266.400787 266.006805,265.789124 266.003052,265.171265 
	C265.914001,250.577240 265.933960,235.982559 265.933960,221.182663 
	C268.934784,221.182663 271.525024,221.182663 274.398560,221.182663 
	C274.398560,236.346664 274.398560,251.403534 274.398560,267.018494 
	C272.383026,267.018494 270.448975,267.018494 268.040710,267.016907 
z"/>
<path fill="#D8D8D8" opacity="1.000000" stroke="none" 
	d="
M146.299149,373.570557 
	C146.016571,369.105286 146.016571,365.010956 146.016571,360.662170 
	C148.386337,360.662170 150.523361,360.153137 152.196640,360.815552 
	C153.661865,361.395538 155.849152,364.036499 155.579788,364.485992 
	C153.766296,367.512146 159.340988,373.782806 151.543503,374.037476 
	C149.892380,374.091431 148.235794,373.977905 146.299149,373.570557 
z"/>
<path fill="#E0E0E0" opacity="1.000000" stroke="none" 
	d="
M326.587860,370.633728 
	C326.596558,367.229370 326.596558,364.268921 326.596558,359.911133 
	C329.877197,360.809448 332.903717,361.137268 335.255615,362.571442 
	C336.012878,363.033203 334.993011,366.409302 333.595825,368.426239 
	C334.655579,370.068390 335.715332,371.710510 336.775085,373.352661 
	C336.506378,373.686005 336.237671,374.019379 335.968964,374.352722 
	C333.993866,372.605316 332.018768,370.857910 329.601685,368.719452 
	C329.340668,370.702606 329.126495,372.329895 328.912323,373.957153 
	C328.518311,374.052979 328.124268,374.148804 327.730255,374.244629 
	C327.346558,373.188934 326.962860,372.133270 326.587860,370.633728 
z"/>
<path fill="#E4E4E4" opacity="1.000000" stroke="none" 
	d="
M276.420471,360.895355 
	C278.563995,360.694824 280.754456,360.157074 282.067749,360.994659 
	C283.470795,361.889496 285.185394,365.125519 284.802643,365.543457 
	C281.710632,368.919891 284.846832,371.045624 286.087860,373.552338 
	C285.763245,373.873016 285.438629,374.193665 285.114014,374.514343 
	C283.238495,372.747009 281.362976,370.979675 279.406494,369.136047 
	C278.718445,370.866058 278.044006,372.561920 277.369537,374.257751 
	C276.940125,374.126984 276.510742,373.996216 276.081329,373.865417 
	C276.081329,369.631439 276.081329,365.397430 276.420471,360.895355 
z"/>
<path fill="#E0E0E0" opacity="1.000000" stroke="none" 
	d="
M210.951904,366.283875 
	C213.089706,360.910583 215.907974,359.297119 220.052078,360.836517 
	C224.031067,362.314575 225.145538,365.428192 224.193085,369.261230 
	C223.155380,373.437256 220.010147,374.685913 216.121292,373.971985 
	C212.210175,373.253937 210.694077,370.520691 210.951904,366.283875 
M221.865860,367.428345 
	C221.594559,364.691711 220.520706,362.307587 217.398361,362.987885 
	C215.964508,363.300293 213.951035,365.296234 213.910294,366.582886 
	C213.856735,368.273895 215.075867,370.876953 216.485550,371.555939 
	C219.184982,372.856140 221.062775,371.029205 221.865860,367.428345 
z"/>
<path fill="#E4E4E4" opacity="1.000000" stroke="none" 
	d="
M177.314484,374.063599 
	C173.399307,372.983490 171.298492,370.490814 172.062195,367.015503 
	C172.553940,364.777740 174.318756,361.910553 176.237488,361.147675 
	C178.210007,360.363434 181.977539,360.983765 183.290863,362.466980 
	C184.810959,364.183716 185.301132,367.672607 184.807770,370.101501 
	C184.140442,373.386780 181.041168,374.430176 177.314484,374.063599 
M174.620163,367.405182 
	C174.738571,370.404755 176.270432,372.467804 179.255508,371.729706 
	C180.697784,371.373077 182.496109,369.146881 182.608780,367.652283 
	C182.721649,366.155273 181.278824,363.678101 179.908295,363.115448 
	C177.226303,362.014465 175.065598,363.345642 174.620163,367.405182 
z"/>
<path fill="#E4E4E4" opacity="1.000000" stroke="none" 
	d="
M118.627289,368.507477 
	C116.794128,368.250336 115.315117,368.250336 113.543358,368.250336 
	C113.291298,370.212860 113.050613,372.086853 112.795830,374.070587 
	C109.826035,372.241150 109.520737,363.807556 112.462296,360.124878 
	C112.748901,361.302338 113.026443,362.119659 113.129570,362.958405 
	C113.229843,363.773956 113.151352,364.611481 113.151352,365.803589 
	C115.106102,365.803589 116.976479,365.803589 118.661285,365.803589 
	C119.184250,363.901917 119.674164,362.120392 120.164085,360.338867 
	C120.617714,360.424561 121.071350,360.510254 121.524979,360.595947 
	C121.524979,365.013489 121.524979,369.431030 121.524979,373.848541 
	C121.076439,373.971771 120.627899,374.094971 120.179359,374.218170 
	C119.780052,372.400330 119.380753,370.582458 118.627289,368.507477 
z"/>
<path fill="#E0E0E0" opacity="1.000000" stroke="none" 
	d="
M313.949158,366.055786 
	C314.951416,368.806763 315.848541,371.195892 316.777924,373.670990 
	C316.493713,373.674561 304.415527,373.825989 303.816101,373.833496 
	C305.211823,370.234344 306.415863,366.772858 307.919250,363.446716 
	C308.442108,362.289978 309.705658,361.468048 310.630920,360.493195 
	C311.385498,361.467560 312.205597,362.399597 312.871460,363.431244 
	C313.310516,364.111359 313.527588,364.934753 313.949158,366.055786 
z"/>
<path fill="#E4E4E4" opacity="1.000000" stroke="none" 
	d="
M352.360565,372.499695 
	C351.781158,373.094055 350.500336,373.717682 350.370850,373.533203 
	C347.504364,369.449036 344.869568,369.396820 342.185822,373.706787 
	C341.974030,374.046936 341.015015,373.921783 339.740295,374.111633 
	C341.375244,369.821381 342.747498,366.011505 344.314880,362.283630 
	C344.629150,361.536194 345.702942,360.629242 346.395630,360.654205 
	C347.090393,360.679230 348.035278,361.652679 348.369110,362.426727 
	C349.748077,365.624023 350.936798,368.903351 352.360565,372.499695 
z"/>
<path fill="#D8D8D8" opacity="1.000000" stroke="none" 
	d="
M262.638428,362.748840 
	C262.660736,364.997955 262.364410,366.895691 262.799103,368.607849 
	C263.099762,369.792145 264.409424,370.720306 265.268188,371.762878 
	C266.290527,370.714539 267.952942,369.799133 268.204010,368.590546 
	C268.752167,365.951752 268.582703,363.163818 269.708191,360.500488 
	C271.005524,364.653198 272.653473,369.053314 269.324707,372.612671 
	C268.143463,373.875702 264.615723,374.416565 263.057983,373.591064 
	C257.402435,370.593994 260.779572,365.161407 259.814789,360.832947 
	C260.187653,360.639404 260.560516,360.445892 260.933350,360.252380 
	C261.499451,360.941010 262.065552,361.629669 262.638428,362.748840 
z"/>
<path fill="#D8D8D8" opacity="1.000000" stroke="none" 
	d="
M192.020599,368.672729 
	C193.840881,370.282532 195.601532,371.481140 197.362183,372.679749 
	C197.735382,372.205292 198.108582,371.730804 198.481781,371.256317 
	C197.809235,370.161469 197.136673,369.066620 196.192993,367.530426 
	C197.797943,367.323395 199.151810,367.148712 202.299667,366.742615 
	C200.722610,369.874298 200.177917,372.999969 198.584839,373.683990 
	C195.493317,375.011383 191.931152,374.507416 189.963547,370.907257 
	C188.136078,367.563477 188.487305,364.289612 191.460709,361.926636 
	C194.441605,359.557739 197.691147,359.586670 201.581573,362.972748 
	C197.005753,363.457581 191.271729,361.046722 192.020599,368.672729 
z"/>
<path fill="#D8D8D8" opacity="1.000000" stroke="none" 
	d="
M130.946548,362.855347 
	C127.722916,367.892792 133.499039,364.948639 134.210693,367.018494 
	C132.656006,368.083588 130.992050,369.223572 129.328094,370.363556 
	C129.547073,370.793671 129.766037,371.223785 129.985001,371.653931 
	C131.888870,371.866394 133.792725,372.078888 135.696594,372.291382 
	C135.723450,372.752563 135.750320,373.213745 135.777176,373.674927 
	C133.002380,373.837677 130.227570,374.000397 127.176773,374.179321 
	C127.176773,369.457855 127.176773,365.228027 127.176773,360.958344 
	C130.145828,360.958344 132.925049,360.958344 135.704285,360.958344 
	C135.732208,361.422760 135.760147,361.887146 135.788071,362.351562 
	C134.315491,362.508759 132.842896,362.665985 130.946548,362.855347 
z"/>
<path fill="#CACACA" opacity="1.000000" stroke="none" 
	d="
M235.988617,360.430908 
	C236.119568,361.303894 236.109436,362.469788 235.571014,362.817352 
	C234.392868,363.577911 232.946655,363.923279 231.609940,364.438263 
	C233.006027,365.167419 234.412338,365.878143 235.789093,366.642120 
	C236.048157,366.785858 236.189285,367.142090 236.807755,367.958618 
	C235.013947,368.465485 233.467117,368.902557 232.181107,369.265930 
	C231.544983,371.066772 230.965179,372.708221 230.385361,374.349701 
	C229.939743,374.211670 229.494110,374.073639 229.048492,373.935608 
	C229.048492,369.574127 229.048492,365.212677 229.048492,360.352692 
	C231.383041,360.352692 233.495483,360.352692 235.988617,360.430908 
z"/>
<path fill="#E0E0E0" opacity="1.000000" stroke="none" 
	d="
M251.714676,374.111786 
	C249.770142,373.685150 248.226517,373.214355 246.542572,372.700775 
	C247.139374,371.715576 247.289322,371.212341 247.477066,371.197876 
	C249.249374,371.060852 251.028137,371.007263 252.805023,370.929565 
	C251.490936,369.796570 249.807846,368.883484 248.965073,367.469543 
	C248.098572,366.015747 247.150131,363.493042 247.818024,362.454590 
	C249.728210,359.484589 252.492935,359.625031 255.919952,362.564667 
	C253.389740,362.861755 251.680893,363.062378 249.437775,363.325745 
	C251.154495,367.031281 261.915222,368.477753 251.714676,374.111786 
z"/>
<path fill="#D8D8D8" opacity="1.000000" stroke="none" 
	d="
M292.672424,361.660736 
	C293.578888,363.218567 294.295013,364.500366 295.117035,365.971710 
	C296.762726,363.881958 298.268402,361.970001 299.774109,360.058014 
	C300.106659,360.319458 300.439209,360.580872 300.771759,360.842316 
	C298.945526,365.324341 297.119263,369.806396 295.262909,374.362305 
	C293.290680,369.366638 291.603912,365.093994 289.721832,360.326599 
	C290.855164,360.761017 291.668640,361.072845 292.672424,361.660736 
z"/>
<path fill="#CACACA" opacity="1.000000" stroke="none" 
	d="
M99.912964,371.773651 
	C99.913437,368.826477 99.913437,366.343414 99.913437,363.547028 
	C98.569336,363.077240 97.212967,362.603180 95.856606,362.129089 
	C95.893951,361.768402 95.931305,361.407715 95.968658,361.047028 
	C99.512451,361.047028 103.056244,361.047028 106.600037,361.047028 
	C106.682381,361.377869 106.764725,361.708710 106.847076,362.039551 
	C105.634491,362.491241 104.421913,362.942932 102.795364,363.548859 
	C102.795364,366.109100 102.887306,368.906128 102.736885,371.690033 
	C102.694183,372.480347 101.945236,373.232544 101.520164,374.002197 
	C100.984276,373.414062 100.448387,372.825897 99.912964,371.773651 
z"/>
<path fill="#D8D8D8" opacity="1.000000" stroke="none" 
	d="
M165.833221,371.878265 
	C167.078171,372.149841 167.892532,372.419342 168.706894,372.688843 
	C168.673111,372.988220 168.639313,373.287628 168.605530,373.587006 
	C166.020462,373.587006 163.435410,373.587006 161.088226,373.587006 
	C161.088226,369.271851 161.088226,364.902374 161.088226,360.532898 
	C161.779053,360.511841 162.469879,360.490814 163.160706,360.469757 
	C163.160706,363.019257 162.914261,365.602875 163.260529,368.104431 
	C163.444687,369.435028 164.655334,370.623535 165.833221,371.878265 
z"/>
<path fill="#F7F7F7" opacity="1.000000" stroke="none" 
	d="
M359.726868,369.341431 
	C359.760162,366.158569 359.760162,363.414215 359.760162,360.669891 
	C360.632721,360.708710 361.505310,360.747559 362.377869,360.786377 
	C362.004333,364.723999 361.925720,368.729645 361.044647,372.550201 
	C360.831085,373.476227 357.971375,373.792023 356.128876,373.596405 
	C357.317108,372.324249 358.505341,371.052094 359.726868,369.341431 
z"/>
<path fill="#040404" opacity="1.000000" stroke="none" 
	d="
M185.978073,229.647797 
	C194.103775,226.516785 200.966568,227.984528 204.700287,233.368164 
	C208.951431,239.497864 208.481537,250.551315 203.746262,255.810974 
	C197.958694,262.239410 186.376038,261.393799 181.465179,254.331619 
	C177.338623,248.397354 177.382904,233.947876 185.978073,229.647797 
z"/>
<path fill="#070707" opacity="1.000000" stroke="none" 
	d="
M241.232590,228.065643 
	C245.801224,229.803131 247.593109,232.712311 246.330139,237.162994 
	C244.998901,241.854248 241.444870,243.265137 232.279175,242.670502 
	C232.279175,237.810562 232.279175,232.929565 232.279175,227.995682 
	C235.246597,227.995682 238.029633,227.995682 241.232590,228.065643 
z"/>
<path fill="#070707" opacity="1.000000" stroke="none" 
	d="
M191.121490,183.835083 
	C190.290237,178.954391 189.916031,174.127533 189.512573,168.923080 
	C192.681671,168.923080 195.124832,168.760483 197.538055,168.960114 
	C201.425583,169.281693 204.098663,171.064728 204.312042,175.389465 
	C204.522110,179.647507 202.620316,182.438293 198.472321,183.333359 
	C196.238449,183.815399 193.880508,183.722443 191.121490,183.835083 
z"/>
<path fill="#161616" opacity="1.000000" stroke="none" 
	d="
M279.046997,179.023560 
	C280.032867,176.375656 280.912628,174.105881 282.181854,170.831299 
	C284.732147,177.834763 286.930634,183.872131 289.294708,190.364197 
	C284.458893,190.364197 280.080322,190.364197 275.053955,190.364197 
	C276.363098,186.671936 277.652008,183.036804 279.046997,179.023560 
z"/>
<path fill="#101010" opacity="1.000000" stroke="none" 
	d="
M221.822784,367.819092 
	C221.062775,371.029205 219.184982,372.856140 216.485550,371.555939 
	C215.075867,370.876953 213.856735,368.273895 213.910294,366.582886 
	C213.951035,365.296234 215.964508,363.300293 217.398361,362.987885 
	C220.520706,362.307587 221.594559,364.691711 221.822784,367.819092 
z"/>
<path fill="#101010" opacity="1.000000" stroke="none" 
	d="
M174.627930,366.977753 
	C175.065598,363.345642 177.226303,362.014465 179.908295,363.115448 
	C181.278824,363.678101 182.721649,366.155273 182.608780,367.652283 
	C182.496109,369.146881 180.697784,371.373077 179.255508,371.729706 
	C176.270432,372.467804 174.738571,370.404755 174.627930,366.977753 
z"/>
</svg>